<svg width="8" height="10" viewBox="0 0 8 10" fill="none" xmlns="http://www.w3.org/2000/svg">
<path fill-rule="evenodd" clip-rule="evenodd" d="M3.79557 8.61754C6.06194 8.61754 7.59113 8.11203 7.59113 6.84844C7.59113 5.58485 7.1694 5.58485 6.83202 5.33232C6.83202 3.82449 6.32594 0.783508 3.79557 0.783508C1.26519 0.783508 0.759117 3.82449 0.759117 5.33232C0.421728 5.58485 0 5.91803 0 6.84844C0 8.36503 1.52961 8.61754 3.79557 8.61754Z" fill="black"/>
<path d="M3.79544 9.99997C4.29013 9.99997 4.59925 9.79721 4.78777 9.58155C4.97755 9.36496 4.79494 9.07831 4.52039 9.07831H3.07049C2.79594 9.07831 2.61333 9.36496 2.80311 9.58155C2.99163 9.79721 3.30075 9.99997 3.79544 9.99997Z" fill="black"/>
<path fill-rule="evenodd" clip-rule="evenodd" d="M3.7956 0C3.95881 0 4.09081 0.144257 4.09081 0.322595V0.783404C4.09081 0.961279 3.95881 1.10598 3.7956 1.10598C3.63281 1.10598 3.50039 0.961279 3.50039 0.783404V0.322595C3.50039 0.144257 3.63281 0 3.7956 0Z" fill="black"/>
</svg>
